# xmcd
#
# Track frame offsets:
#	150
#	11372
#	47560
#	87658
#	112790
#	125561
#
# Disc length: 1956 seconds
#
# Revision: 1
# Processed by: cddbd v1.5.2PL0 Copyright (c) Steve Scherf et al.
# Submitted via: audiograbber 1.83.01
#
DISCID=4107a206
DTITLE=Grateful Dead - 80-08-30 The Spectrum, Philadelphia PA
DYEAR=1900
DGENRE=
TTITLE0=Space
TTITLE1=Not Fade Away
TTITLE2=Black Peter
TTITLE3=Sugar Magnolia
TTITLE4=Sunshine Daydream
TTITLE5=One More Saturday Night
EXTD=
EXTT0=
EXTT1=
EXTT2=
EXTT3=
EXTT4=
EXTT5=
PLAYORDER=
